<svg enable-background="new 0 0 324.7 64.3" viewBox="0 0 324.7 64.3" xmlns="http://www.w3.org/2000/svg"><path clip-rule="evenodd" d="m37.8 0c16.6 0 30.8 9.2 35.8 22h-40.5l-17.2 36.3c-9.6-5.9-15.9-15.4-15.9-26.2 0-17.7 17-32.1 37.8-32.1z" fill="#002e5b" fill-rule="evenodd"/><path clip-rule="evenodd" d="m75.2 27.9c.2 1.4.3 2.8.3 4.3 0 17.7-17 32.1-37.8 32.1-2.9 0-5.6-.3-8.3-.8l9.9-22.5c2.1-4.7-.8-9.3-5.9-13.2h41.8z" fill="#f24941" fill-rule="evenodd"/><path clip-rule="evenodd" d="m157.1 11.8h-37.4c-9.9 0-22.3 10-24.5 19.5l-1.6 6.5c-3.3 13.6 5.3 22.5 13.9 22.5h29.4c4.7 0 9.8-5.7 10.9-10.3l4.7-19.1-25.8.2-3.6 6.7h11.8c1.9 0 1 3.9.3 5.8l-2.1 6.2c-.7 2-2.6 4.5-4.7 4.5h-14c-5.9 0-6.9-10.9-5.3-16.6l1.8-6.5c1.8-6.8 9.8-13.1 16.8-13.1h28.1c.2-2.2.8-4.2 1.3-6.3zm167.6 0h-29c-9.9 0-22.3 10-24.5 19.5l-1.6 6.5c-3.3 13.6 5.3 22.5 13.9 22.5h29.4l1.6-5.9h-24.3v-.1c-5.7-.2-6.7-10.7-5.2-16.5h33.3l1.5-5.8h-33.2l.2-.9c1.8-6.8 9.8-13.1 16.8-13.1h19.7c.4-2.1.9-4.1 1.4-6.2zm-53.8 0h-29c-9.9 0-22.3 10-24.5 19.5l-1.6 6.5c-3.3 13.6 5.3 22.5 13.9 22.5h29.3l1.6-5.9h-24.3v-.1c-5.7-.2-6.7-10.7-5.2-16.5h33.3l1.5-5.8h-33.2l.2-.9c1.8-6.8 9.8-13.1 16.8-13.1h19.7c.4-2.1 1-4.1 1.5-6.2zm-106.2 0l-12 48.3 15.5.2 10.1-42.5h19.3c2.6 0 4 4.4 3.6 6.9-.5 2.9-3.6 7.4-8.2 7.4h-14.2l15.3 28h17.4l-12.4-22.1c8-1.2 16.2-7.2 16.7-15.7.2-4.1-4-10.5-11.1-10.5z" fill="#002e5b" fill-rule="evenodd"/></svg>